<svg width="25" height="26" viewBox="0 0 25 26" fill="none" xmlns="http://www.w3.org/2000/svg">
<g id="Group">
<path id="Vector" d="M12.5 5.3983C11.4235 5.3983 10.5508 4.52562 10.5508 3.44915C10.5508 2.37268 11.4235 1.5 12.5 1.5C13.5765 1.5 14.4492 2.37268 14.4492 3.44915C14.4492 4.52562 13.5765 5.3983 12.5 5.3983ZM12.5 5.3983V20.6017M4.8983 6.37288L1 12.2203M4.8983 6.37288L8.79661 12.2203M4.8983 6.37288V2.1497M1 12.2203C1 14.3644 2.75429 16.1186 4.8983 16.1186C7.04349 16.1186 8.79661 14.3655 8.79661 12.2203M1 12.2203H8.79661M20.1017 8.32203L16.2034 14.1695M20.1017 8.32203L24 14.1695M20.1017 8.32203V4.7486M16.2034 14.1695C16.2034 16.3135 17.9577 18.0678 20.1017 18.0678C22.2469 18.0678 24 16.3147 24 14.1695M16.2034 14.1695H24M1 1.5L10.5771 3.12866M14.4229 3.76964L24 5.3983M18.3475 24.5H6.65254V22.5508C6.65254 21.4744 7.52523 20.6017 8.60169 20.6017H16.3983C17.4748 20.6017 18.3475 21.4744 18.3475 22.5508V24.5Z" stroke="currentColor" stroke-width="2" stroke-miterlimit="10" stroke-linecap="round"/>
</g>
</svg>
